<?xml version="1.0" encoding="UTF-8"?>
<svg width="15px" height="15px" viewBox="0 0 15 15" version="1.1" xmlns="http://www.w3.org/2000/svg" xmlns:xlink="http://www.w3.org/1999/xlink">
    <!-- Generator: Sketch 51.1 (57501) - http://www.bohemiancoding.com/sketch -->
    <title>Group</title>
    <desc>Created with Sketch.</desc>
    <defs>
        <polygon id="path-1" points="0.0346153846 0.230769231 14.7703846 0.230769231 14.7703846 15.0011538 0.0346153846 15.0011538"></polygon>
    </defs>
    <g id="Search" stroke="none" stroke-width="1" fill="none" fill-rule="evenodd">
        <g id="New-Search-Bar" transform="translate(-1208.000000, -106.000000)">
            <g id="main-content" transform="translate(264.000000, 76.000000)">
                <g id="chart-overview">
                    <g id="dashhead" transform="translate(20.000000, 20.000000)">
                        <g id="date-range" transform="translate(529.000000, 3.000000)">
                            <g id="Group" transform="translate(395.000000, 7.000000)">
                                <g id="Group-3">
                                    <mask id="mask-2" fill="white">
                                        <use xlink:href="#path-1"></use>
                                    </mask>
                                    <g id="Clip-2"></g>
                                    <path d="M13.5398077,1.61423077 L11.5384615,1.61423077 L11.5384615,0.692884615 C11.5384615,0.437884615 11.3313462,0.230769231 11.0763462,0.230769231 C10.8219231,0.230769231 10.6142308,0.437884615 10.6142308,0.692884615 L10.6142308,1.61423077 L7.84730769,1.61423077 L7.84730769,0.692884615 C7.84730769,0.437884615 7.63961538,0.230769231 7.38519231,0.230769231 C7.13019231,0.230769231 6.92307692,0.437884615 6.92307692,0.692884615 L6.92307692,1.61423077 L4.15326923,1.61423077 L4.15326923,0.692884615 C4.15326923,0.437884615 3.94615385,0.230769231 3.69115385,0.230769231 C3.43673077,0.230769231 3.23192308,0.437884615 3.23192308,0.692884615 L3.23192308,1.61423077 L1.23057692,1.61423077 C0.552115385,1.61423077 0,2.16634615 0,2.84480769 L0,13.7682692 C0,14.4490385 0.552115385,15.0011538 1.23057692,15.0011538 L13.5398077,15.0011538 C14.2182692,15.0011538 14.7703846,14.4490385 14.7703846,13.7682692 L14.7703846,2.84480769 C14.7703846,2.16634615 14.2182692,1.61423077 13.5398077,1.61423077 Z M13.8461538,13.7682692 C13.8461538,13.9396154 13.7088462,14.0769231 13.5398077,14.0769231 L1.23057692,14.0769231 C1.06153846,14.0769231 0.924230769,13.9396154 0.924230769,13.7682692 L0.924230769,2.84480769 C0.924230769,2.67576923 1.06153846,2.53846154 1.23057692,2.53846154 L3.23192308,2.53846154 L3.23192308,3.46269231 C3.23192308,3.71711538 3.43673077,3.92192308 3.69115385,3.92192308 C3.94615385,3.92192308 4.15326923,3.71711538 4.15326923,3.46269231 L4.15326923,2.53846154 L6.92307692,2.53846154 L6.92307692,3.46269231 C6.92307692,3.71711538 7.13019231,3.92192308 7.38519231,3.92192308 C7.63961538,3.92192308 7.84730769,3.71711538 7.84730769,3.46269231 L7.84730769,2.53846154 L10.6142308,2.53846154 L10.6142308,3.46269231 C10.6142308,3.71711538 10.8219231,3.92192308 11.0763462,3.92192308 C11.3313462,3.92192308 11.5384615,3.71711538 11.5384615,3.46269231 L11.5384615,2.53846154 L13.5398077,2.53846154 C13.7088462,2.53846154 13.8461538,2.67576923 13.8461538,2.84480769 L13.8461538,13.7682692 Z" id="Fill-1" fill="#9AA0A8" mask="url(#mask-2)"></path>
                                </g>
                                <polygon id="Fill-4" fill="#9AA0A8" points="3.23192308 7.15384615 5.0775 7.15384615 5.0775 5.77038462 3.23192308 5.77038462"></polygon>
                                <polygon id="Fill-5" fill="#9AA0A8" points="3.23192308 9.46153846 5.0775 9.46153846 5.0775 8.07807692 3.23192308 8.07807692"></polygon>
                                <polygon id="Fill-6" fill="#9AA0A8" points="3.23192308 11.7692308 5.0775 11.7692308 5.0775 10.3857692 3.23192308 10.3857692"></polygon>
                                <polygon id="Fill-7" fill="#9AA0A8" points="6.46096154 11.7692308 8.30653846 11.7692308 8.30653846 10.3857692 6.46096154 10.3857692"></polygon>
                                <polygon id="Fill-8" fill="#9AA0A8" points="6.46096154 9.46153846 8.30653846 9.46153846 8.30653846 8.07807692 6.46096154 8.07807692"></polygon>
                                <polygon id="Fill-9" fill="#9AA0A8" points="6.46096154 7.15384615 8.30653846 7.15384615 8.30653846 5.77038462 6.46096154 5.77038462"></polygon>
                                <polygon id="Fill-10" fill="#9AA0A8" points="9.69288462 11.7692308 11.5384615 11.7692308 11.5384615 10.3857692 9.69288462 10.3857692"></polygon>
                                <polygon id="Fill-11" fill="#9AA0A8" points="9.69288462 9.46153846 11.5384615 9.46153846 11.5384615 8.07807692 9.69288462 8.07807692"></polygon>
                                <polygon id="Fill-12" fill="#9AA0A8" points="9.69288462 7.15384615 11.5384615 7.15384615 11.5384615 5.77038462 9.69288462 5.77038462"></polygon>
                            </g>
                        </g>
                    </g>
                </g>
            </g>
        </g>
    </g>
</svg>